<?xml version="1.0" encoding="UTF-8" standalone="no"?>
<svg
   width="100%"
   height="100%"
   viewBox="0 0 1603 272"
   style="fill-rule:evenodd;clip-rule:evenodd;stroke-linejoin:round;stroke-miterlimit:2"
   version="1.1"
   id="svg112"
   sodipodi:docname="openmower_logo_black.svg"
   inkscape:export-filename="test.png"
   inkscape:export-xdpi="19.164068"
   inkscape:export-ydpi="19.164068"
   inkscape:version="1.2.2 (732a01da63, 2022-12-09)"
   xmlns:inkscape="http://www.inkscape.org/namespaces/inkscape"
   xmlns:sodipodi="http://sodipodi.sourceforge.net/DTD/sodipodi-0.dtd"
   xmlns="http://www.w3.org/2000/svg"
   xmlns:svg="http://www.w3.org/2000/svg"
   xmlns:serif="http://www.serif.com/">
  <defs
     id="defs116">
    <filter
       style="color-interpolation-filters:sRGB;"
       inkscape:label="Invert"
       id="filter2869"
       x="0"
       y="0"
       width="1"
       height="1">
      <feColorMatrix
         values="1 0 0 0 0 0 0 1 0 0 0 1 0 0 0 -0.21 -0.72 -0.07 2 0 "
         result="color2"
         id="feColorMatrix2867" />
    </filter>
  </defs>
  <sodipodi:namedview
     id="namedview114"
     pagecolor="#ffffff"
     bordercolor="#000000"
     borderopacity="0.25"
     inkscape:showpageshadow="2"
     inkscape:pageopacity="0"
     inkscape:pagecheckerboard="0"
     inkscape:deskcolor="#d1d1d1"
     showgrid="false"
     inkscape:zoom="0.93512165"
     inkscape:cx="622.91361"
     inkscape:cy="135.81121"
     inkscape:window-width="2560"
     inkscape:window-height="1369"
     inkscape:window-x="-8"
     inkscape:window-y="-8"
     inkscape:window-maximized="1"
     inkscape:current-layer="svg112" />
  <g
     transform="translate(-1801.2413,-590.875)"
     id="g110"
     inkscape:export-filename=".\test.png"
     inkscape:export-xdpi="14.1335"
     inkscape:export-ydpi="14.1335"
     style="filter:url(#filter2869)">
    <g
       transform="translate(1803.38,592.875)"
       id="g108">
      <rect
         id="Page-6"
         serif:id="Page 6"
         x="0"
         y="0"
         width="1603"
         height="272"
         style="fill:none" />
      <g
         id="Page-61"
         serif:id="Page 6">
        <g
           id="Layer-2"
           serif:id="Layer 2" />
        <g
           id="Layer-1"
           serif:id="Layer 1"
           style="fill:#000000">
          <g
             transform="translate(682.34,135.614)"
             id="g64"
             style="fill:#000000">
            <path
               d="m 0,0.001 c 0,-26.444 -20.203,-47.93 -46.647,-47.93 -26.627,0 -46.828,21.486 -46.828,47.93 0,26.444 20.201,47.93 46.828,47.93 C -20.203,47.931 0,26.445 0,0.001 m -108.715,0 c 0,-34.157 26.627,-61.336 62.068,-61.336 35.259,0 61.887,27.179 61.887,61.336 0,34.158 -26.628,61.335 -61.887,61.335 -35.441,0 -62.068,-27.177 -62.068,-61.335"
               style="fill:#000000;fill-rule:nonzero"
               id="path62" />
          </g>
          <g
             transform="translate(793.816,174.547)"
             id="g68"
             style="fill:#000000">
            <path
               d="m 0,-24.241 c 0,-18.914 -13.222,-32.871 -31.036,-32.871 -17.077,0 -30.483,14.14 -30.483,32.871 0,18.73 13.406,33.055 30.483,33.055 C -13.222,8.814 0,-5.142 0,-24.241 m -75.477,-44.624 h 13.406 v 15.426 c 6.613,-11.57 19.651,-17.263 34.158,-17.263 24.791,0 42.236,20.384 42.236,46.461 0,26.076 -17.445,46.644 -42.236,46.644 -14.141,0 -26.997,-5.877 -33.606,-17.446 v 41.504 h -13.958 z"
               style="fill:#000000;fill-rule:nonzero"
               id="path66" />
          </g>
          <g
             transform="translate(898.311,155.997)"
             id="g72"
             style="fill:#000000">
            <path
               d="m 0,-11.199 c -1.469,-16.528 -14.139,-28.466 -29.751,-28.466 -15.239,0 -27.729,11.753 -29.747,28.466 z m -74.006,5.692 c 0,-25.893 19.464,-46.645 44.992,-46.645 23.874,0 42.788,20.568 42.788,46.093 0,2.572 -0.368,5.326 -0.368,5.51 h -72.904 c 2.202,17.814 15.977,29.016 32.503,29.016 10.102,0 20.202,-3.49 27.547,-9.551 L 6.613,29.2 c -9.551,7.53 -21.488,11.753 -33.79,11.753 -25.343,0 -46.829,-18.18 -46.829,-46.46"
               style="fill:#000000;fill-rule:nonzero"
               id="path70" />
          </g>
          <g
             transform="translate(931.924,193.277)"
             id="g76"
             style="fill:#000000">
            <path
               d="m 0,-87.595 h 13.955 v 15.242 c 6.245,-10.835 17.813,-17.079 31.035,-17.079 22.405,0 32.321,13.59 32.321,37.096 V 1.837 H 63.356 v -52.338 c 0,-16.526 -6.06,-25.341 -22.221,-25.341 -15.976,0 -27.18,12.487 -27.18,27.363 V 1.837 H 0 Z"
               style="fill:#000000;fill-rule:nonzero"
               id="path74" />
          </g>
          <g
             transform="translate(1033.48,195.115)"
             id="g80"
             style="fill:#000000">
            <path
               d="m 0,-118.999 h 13.04 l 29.014,40.401 c 6.245,8.815 19.283,27.545 19.283,27.545 0,0 13.038,-18.546 19.282,-27.361 l 29.014,-40.585 h 13.039 V 0 H 107.98 v -94.208 c 0,0 -3.122,5.693 -8.814,13.59 L 61.337,-27.363 23.324,-80.986 c -5.328,-7.529 -8.633,-13.222 -8.633,-13.222 V 0 H 0 Z"
               style="fill:#000000;fill-rule:nonzero"
               id="path78" />
          </g>
          <g
             transform="translate(1257.71,150.305)"
             id="g84"
             style="fill:#000000">
            <path
               d="M 0,0.185 C 0,-18.73 -14.143,-32.87 -32.689,-32.87 c -18.546,0 -32.689,14.14 -32.689,33.055 0,18.73 14.143,32.871 32.689,32.871 C -14.143,33.056 0,18.915 0,0.185 m -79.701,0 c 0,-26.078 20.752,-46.645 47.012,-46.645 26.26,0 47.012,20.567 47.012,46.645 0,25.892 -20.752,46.46 -47.012,46.46 -26.26,0 -47.012,-20.568 -47.012,-46.46"
               style="fill:#000000;fill-rule:nonzero"
               id="path82" />
          </g>
          <g
             transform="translate(1278.65,195.665)"
             id="g88"
             style="fill:#000000">
            <path
               d="m 0,-89.983 h 13.774 l 20.2,58.947 c 2.021,6.061 3.122,13.04 3.122,13.04 0,0 0.733,-6.979 2.57,-12.856 l 18.182,-59.131 h 13.038 l 18.362,59.131 c 1.837,5.877 2.574,12.856 2.574,12.856 0,0 0.917,-6.979 3.122,-13.04 l 20.2,-58.947 h 13.77 L 98.063,0 H 85.945 L 67.396,-59.131 c -1.654,-5.142 -2.939,-13.039 -2.939,-13.039 0,0 -1.101,7.897 -2.754,13.039 L 42.789,0 H 30.852 Z"
               style="fill:#000000;fill-rule:nonzero"
               id="path86" />
          </g>
          <g
             transform="translate(1488.01,155.997)"
             id="g92"
             style="fill:#000000">
            <path
               d="m 0,-11.199 c -1.469,-16.528 -14.139,-28.466 -29.747,-28.466 -15.243,0 -27.729,11.753 -29.751,28.466 z m -74.005,5.692 c 0,-25.893 19.467,-46.645 44.991,-46.645 23.874,0 42.788,20.568 42.788,46.093 0,2.572 -0.368,5.326 -0.368,5.51 h -72.904 c 2.202,17.814 15.977,29.016 32.505,29.016 10.1,0 20.2,-3.49 27.545,-9.551 L 6.613,29.2 c -9.551,7.53 -21.485,11.753 -33.79,11.753 -25.343,0 -46.828,-18.18 -46.828,-46.46"
               style="fill:#000000;fill-rule:nonzero"
               id="path90" />
          </g>
          <g
             transform="translate(1521.62,193.277)"
             id="g96"
             style="fill:#000000">
            <path
               d="m 0,-87.595 h 13.958 v 18.914 c 5.141,-11.752 16.709,-20.751 34.523,-20.751 v 15.242 c -20.932,0 -34.523,11.753 -34.523,33.607 V 1.837 H 0 Z"
               style="fill:#000000;fill-rule:nonzero"
               id="path94" />
          </g>
          <g
             transform="translate(443.663,215.024)"
             id="g100"
             style="fill:#000000">
            <path
               d="m 0,-168.764 c -20.152,-7.619 -55.244,-16.164 -111.279,-16.164 -131.42,0 -216.297,69.461 -220.007,78.844 h 84.164 l 40.032,-40.032 h 75.709 c 2.011,-4.758 6.801,-8.056 12.338,-7.845 6.615,0.251 12.09,5.725 12.341,12.34 0.279,7.326 -5.578,13.352 -12.841,13.352 -5.326,0 -9.894,-3.239 -11.844,-7.855 h -71.564 l -30.04,30.04 h 29.184 c 2.179,-5.159 7.631,-8.599 13.754,-7.717 5.698,0.821 10.225,5.524 10.859,11.246 0.859,7.754 -5.189,14.318 -12.77,14.318 -5.325,0 -9.893,-3.239 -11.843,-7.855 h -140.98 c -10.953,5.516 -20.946,10.808 -29.774,15.643 h 37.022 l 24.976,24.976 h 64.275 c 2.18,-5.16 7.631,-8.599 13.754,-7.717 5.698,0.821 10.225,5.523 10.859,11.245 0.859,7.754 -5.188,14.319 -12.769,14.319 -5.326,0 -9.894,-3.24 -11.844,-7.855 h -68.415 l -24.975,-24.976 h -50.658 c -4.203,2.426 -7.933,4.625 -11.138,6.544 -7.476,4.476 -9.568,14.357 -4.553,21.483 l 15.924,22.63 -14.593,27.139 c -2.146,3.99 0.744,8.825 5.274,8.825 h 280.591 c 6.404,-11.907 7.75,-14.41 14.154,-26.316 -9.719,-14.915 -15.367,-32.725 -15.367,-51.854 0,-51.71 41.245,-94.442 92.65,-95.1 5.826,-0.075 16.846,-0.083 27.26,-0.069 6.662,0.009 8.365,-9.233 2.134,-11.589"
               style="fill:#000000;fill-rule:nonzero"
               id="path98" />
          </g>
          <g
             transform="translate(416.751,121.094)"
             id="g104"
             style="fill:#000000">
            <path
               d="m 0,63.847 c -17.631,0 -31.924,-14.293 -31.924,-31.924 0,-17.631 14.293,-31.924 31.924,-31.924 17.631,0 31.924,14.293 31.924,31.924 C 31.924,49.554 17.631,63.847 0,63.847 M 84.791,22.474 c -1.996,0 -3.717,-1.44 -4.028,-3.412 C 78.71,6.077 73.604,-5.886 66.2,-16.078 c -1.175,-1.619 -0.983,-3.853 0.432,-5.267 l 0.007,-0.007 c 1.598,-1.599 1.598,-4.192 0,-5.791 l -7.573,-7.572 c -1.599,-1.599 -4.192,-1.599 -5.791,0 l -0.006,0.007 c -1.414,1.414 -3.648,1.607 -5.267,0.431 -10.193,-7.404 -22.156,-12.51 -35.141,-14.562 -1.972,-0.312 -3.412,-2.032 -3.412,-4.03 0,-2.261 -1.833,-4.094 -4.094,-4.094 h -10.71 c -2.261,0 -4.095,1.833 -4.095,4.094 0,1.998 -1.438,3.718 -3.411,4.03 -12.985,2.052 -24.948,7.158 -35.14,14.562 -1.618,1.176 -3.852,0.983 -5.268,-0.431 l -0.006,-0.007 c -1.599,-1.599 -4.192,-1.599 -5.79,0 l -7.573,7.572 c -1.599,1.599 -1.599,4.192 0,5.791 l 0.007,0.007 c 1.414,1.414 1.607,3.649 0.431,5.267 -7.404,10.192 -12.51,22.155 -14.563,35.14 -0.311,1.972 -2.031,3.412 -4.028,3.412 -2.262,0 -4.095,1.833 -4.095,4.095 v 10.709 c 0,2.261 1.833,4.095 4.095,4.095 1.997,0 3.717,1.439 4.028,3.412 2.053,12.984 7.159,24.947 14.563,35.14 1.176,1.618 0.983,3.852 -0.431,5.267 l -0.007,0.007 c -1.599,1.598 -1.599,4.191 0,5.79 l 7.573,7.573 c 1.598,1.599 4.191,1.599 5.79,0 l 0.006,-0.007 c 1.416,-1.415 3.65,-1.607 5.268,-0.432 10.192,7.404 22.155,12.511 35.14,14.563 1.973,0.311 3.411,2.032 3.411,4.029 0,2.262 1.834,4.095 4.095,4.095 h 10.71 c 2.261,0 4.094,-1.833 4.094,-4.095 0,-1.997 1.44,-3.718 3.412,-4.029 12.985,-2.052 24.948,-7.159 35.141,-14.563 1.619,-1.175 3.853,-0.983 5.267,0.432 l 0.006,0.007 c 1.599,1.599 4.192,1.599 5.791,0 l 7.573,-7.573 c 1.598,-1.599 1.598,-4.191 0,-5.79 L 66.632,85.192 C 65.217,83.777 65.025,81.543 66.2,79.925 73.604,69.732 78.71,57.769 80.763,44.785 c 0.311,-1.973 2.032,-3.412 4.028,-3.412 2.262,0 4.095,-1.834 4.095,-4.095 V 26.569 c 0,-2.262 -1.833,-4.095 -4.095,-4.095"
               style="fill:#000000;fill-rule:nonzero"
               id="path102" />
          </g>
        </g>
      </g>
    </g>
  </g>
</svg>
